# xmcd CD database file
# Copyright (C) 1995-1998 Ti Kan
#
# Track frame offsets:
#	150
#	12427
#	31987
#	46242
#	64629
#	80787
#	97958
#	115232
#	131656
#	148305
#	162905
#	179807
#
# Disc length: 2712 seconds
#
# Revision: 1
# Processed by: cddbd v1.5.2PL0 Copyright (c) Steve Scherf et al.
# Submitted via: CDex 1.30Release
#
DISCID=a90a960c
DTITLE=Shania Twain - The First Album
DYEAR=1989
DGENRE=Country
TTITLE0=Bite My Lip
TTITLE1=I Lost My Heart When I Found You
TTITLE2=Wild And Wicked
TTITLE3=Hate To Love
TTITLE4=For The Love Of Him
TTITLE5=The Rhytm Made Me Do It
TTITLE6=(Don't Gimme That) Once Over
TTITLE7=Two Hearts One Love
TTITLE8=Luv Eyes
TTITLE9=Half Breed
TTITLE10=Send It With Love
TTITLE11=For The Love Of Him (Dance mix)
EXTD=YEAR: 1989 ID3G:   2
EXTT0=
EXTT1=
EXTT2=
EXTT3=
EXTT4=
EXTT5=
EXTT6=
EXTT7=
EXTT8=
EXTT9=
EXTT10=
EXTT11=
PLAYORDER=
